<svg width="120" height="120" viewBox="0 0 110 105" fill="none" xmlns="http://www.w3.org/2000/svg">
<path d="M55 37.2094C46.1313 37.2094 38.9813 44.1 38.9813 52.5C38.9813 60.9 46.2 67.7906 55 67.7906C63.8 67.7906 71.0187 60.9 71.0187 52.5C71.0187 44.1 63.8 37.2094 55 37.2094ZM103.125 52.5C103.125 46.1344 103.125 39.9 102.781 33.5344C102.437 26.1844 100.65 19.6219 95.0125 14.3063C89.375 8.925 82.5688 7.21875 74.8688 6.89062C68.2 6.5625 61.6688 6.5625 55 6.5625C48.3312 6.5625 41.8 6.5625 35.1313 6.89062C27.4313 7.21875 20.5563 8.925 14.9875 14.3063C9.35 19.6875 7.5625 26.1844 7.21875 33.5344C6.875 39.9 6.875 46.1344 6.875 52.5C6.875 58.8656 6.875 65.1 7.21875 71.4656C7.5625 78.8156 9.35 85.3781 14.9875 90.6937C20.625 96.075 27.4313 97.7812 35.1313 98.1094C41.8 98.4375 48.3312 98.4375 55 98.4375C61.6688 98.4375 68.2 98.4375 74.8688 98.1094C82.5688 97.7812 89.4437 96.075 95.0125 90.6937C100.65 85.3125 102.437 78.8156 102.781 71.4656C103.194 65.1656 103.125 58.8656 103.125 52.5ZM55 76.0594C41.3187 76.0594 30.3187 65.5594 30.3187 52.5C30.3187 39.4406 41.3187 28.9406 55 28.9406C68.6813 28.9406 79.6813 39.4406 79.6813 52.5C79.6813 65.5594 68.6813 76.0594 55 76.0594ZM80.7125 33.4687C77.55 33.4687 74.9375 31.0406 74.9375 27.9563C74.9375 24.8719 77.4812 22.4438 80.7125 22.4438C83.9437 22.4438 86.4875 24.8719 86.4875 27.9563C86.5049 28.6751 86.3674 29.3897 86.0836 30.0557C85.7998 30.7217 85.3756 31.325 84.8375 31.8281C84.3104 32.3418 83.6784 32.7466 82.9807 33.0176C82.2829 33.2885 81.5343 33.4197 80.7812 33.4031L80.7125 33.4687Z" fill="black"/>
</svg>
