<svg width="34" height="31" viewBox="0 0 34 31" fill="none" xmlns="http://www.w3.org/2000/svg">
    <path d="M29.2859 30.7147H4.71412C3.62799 30.7147 2.58633 30.3102 1.81832 29.5901C1.0503 28.8701 0.618835 27.8936 0.618835 26.8753L0.618835 3.83933C0.618835 2.82108 1.0503 1.84453 1.81832 1.12451C2.58633 0.4045 3.62799 0 4.71412 0L29.2859 0C30.372 0 31.4137 0.4045 32.1817 1.12451C32.9497 1.84453 33.3811 2.82108 33.3811 3.83933V26.8753C33.3811 27.8936 32.9497 28.8701 32.1817 29.5901C31.4137 30.3102 30.372 30.7147 29.2859 30.7147ZM13.1996 23.1589C20.9242 23.1589 25.1487 17.1541 25.1487 11.9565C25.1487 11.7859 25.1487 11.6187 25.1414 11.4497C25.9605 10.8969 26.6722 10.1973 27.2382 9.40722C26.4847 9.72119 25.6729 9.92937 24.8211 10.0283C25.7001 9.53588 26.3585 8.76095 26.674 7.8476C25.8488 8.30635 24.9456 8.62844 24.0038 8.79975C23.3705 8.16799 22.5326 7.74963 21.6199 7.60947C20.7072 7.46931 19.7708 7.61516 18.9555 8.02444C18.1402 8.43372 17.4916 9.08359 17.1101 9.87342C16.7286 10.6632 16.6355 11.5489 16.8453 12.3934C15.1749 12.3148 13.5409 11.9077 12.0493 11.1987C10.5576 10.4896 9.24168 9.49439 8.18693 8.2776C7.65059 9.14544 7.48663 10.1721 7.72833 11.1492C7.97003 12.1262 8.59928 12.9804 9.48832 13.5383C8.8232 13.5162 8.17293 13.3479 7.58993 13.0469V13.0998C7.58993 15.0041 9.03875 16.6013 10.9553 16.963C10.5954 17.0555 10.2237 17.1014 9.85053 17.0995C9.57933 17.0995 9.31723 17.0774 9.06241 17.0313C9.33021 17.814 9.85263 18.4985 10.5564 18.9887C11.2602 19.4789 12.11 19.7504 12.9866 19.7649C12.1161 20.4071 11.119 20.8821 10.0524 21.1626C8.98582 21.4431 7.8707 21.5237 6.77087 21.3996C8.69105 22.5486 10.9216 23.159 13.1996 23.1589Z"
          fill="white" fill-opacity="0.8"/>
</svg>