<svg
   version="1.1"
   id="svg2"
   width="30.32001"
   height="30.53333"
   viewBox="0 0 246.32001 195.53333"
   sodipodi:docname="EP logo CMYK_EN.eps"
   xmlns:inkscape="http://www.inkscape.org/namespaces/inkscape"
   xmlns:sodipodi="http://sodipodi.sourceforge.net/DTD/sodipodi-0.dtd"
   xmlns="http://www.w3.org/2000/svg"
   xmlns:svg="http://www.w3.org/2000/svg">
  <defs
     id="defs6" />
  <sodipodi:namedview
     id="namedview4"
     pagecolor="#ffffff"
     bordercolor="#000000"
     borderopacity="0.25"
     inkscape:showpageshadow="2"
     inkscape:pageopacity="0.0"
     inkscape:pagecheckerboard="0"
     inkscape:deskcolor="#d1d1d1" />
  <g
     id="g8"
     inkscape:groupmode="layer"
     inkscape:label="ink_ext_XXXXXX"
     transform="matrix(1.3333333,0,0,-1.3333333,0,195.53333)">
    <g
       id="g10"
       transform="scale(0.1)">
      <path
         d="m 328.992,369.262 h -27.058 v -36.211 h 30.781 V 317.332 H 283.84 V 431.32 h 46.851 v -15.711 h -28.757 v -31.308 h 27.058 v -15.039"
         style="fill:#787f84;fill-opacity:1;fill-rule:nonzero;stroke:none"
         id="path12" />
      <path
         d="m 406.086,341.352 c 0,-8.942 0.34,-17.071 0.672,-24.02 h -15.735 l -1.003,8.629 h -0.34 c -3.215,-4.891 -9.817,-9.981 -18.45,-9.981 -15.039,0 -21.125,11.329 -21.125,32.821 v 50.91 h 18.086 v -48.723 c 0,-11.828 2.036,-19.949 9.485,-19.949 5.578,0 8.445,4.742 9.289,8.121 0.68,1.852 1.023,4.379 1.023,7.09 v 53.461 h 18.098 v -58.359"
         style="fill:#787f84;fill-opacity:1;fill-rule:nonzero;stroke:none"
         id="path14" />
      <path
         d="m 429.52,376.52 c 0,7.609 -0.34,16.242 -0.672,23.191 h 15.715 l 1.011,-12.359 h 0.52 c 3.203,8.269 9.98,13.699 16.75,13.699 1.687,0 2.691,-0.16 3.886,-0.321 v -17.96 c -1.195,0.179 -2.367,0.179 -3.886,0.179 -6.262,0 -12.524,-5.238 -14.563,-14.187 -0.332,-1.883 -0.676,-4.742 -0.676,-7.793 V 317.332 H 429.52 v 59.188"
         style="fill:#787f84;fill-opacity:1;fill-rule:nonzero;stroke:none"
         id="path16" />
      <path
         d="m 509.855,329.859 c 8.961,0 10.997,16.231 10.997,28.75 0,11.993 -2.036,28.571 -11.332,28.571 -9.801,0 -11.668,-16.578 -11.668,-28.571 0,-13.879 2.363,-28.75 11.843,-28.75 z m -0.667,-13.879 c -17.43,0 -29.43,14.551 -29.43,42.282 0,29.937 14.715,42.789 30.097,42.789 17.254,0 29.09,-15.051 29.09,-42.262 0,-33.32 -17.246,-42.809 -29.59,-42.809 h -0.167"
         style="fill:#787f84;fill-opacity:1;fill-rule:nonzero;stroke:none"
         id="path18" />
      <path
         d="m 576.836,347.441 c 0,-2.531 0.344,-5.07 0.852,-6.929 2.195,-7.953 6.421,-9.641 9.468,-9.641 9.121,0 12.168,13.02 12.168,27.559 0,16.402 -3.886,27.398 -12.168,27.398 -4.566,0 -8.621,-5.09 -9.644,-10.668 -0.508,-1.832 -0.676,-3.859 -0.676,-6.07 z m -17.93,26.379 c 0,11.18 -0.332,18.942 -0.676,25.891 h 15.723 l 1.02,-10 h 0.34 c 3.898,7.809 10.148,11.34 17.253,11.34 16.399,0 24.856,-17.59 24.856,-42.262 0,-30.117 -12.844,-42.809 -26.211,-42.809 -7.273,0 -11.668,4.391 -14.031,8.629 h -0.344 v -39.738 h -17.93 v 88.949"
         style="fill:#787f84;fill-opacity:1;fill-rule:nonzero;stroke:none"
         id="path20" />
      <path
         d="m 674.602,366.559 c 0.164,13.171 -4.231,20.972 -10.657,20.972 -7.773,0 -11.328,-11.351 -11.672,-20.972 z m -22.329,-12.868 c 0.168,-18.429 8.633,-23.492 18.274,-23.492 6.074,0 11.164,1.34 14.707,2.852 l 2.715,-12.852 c -5.242,-2.359 -13.203,-3.867 -20.645,-3.867 -21.308,0 -32.636,15.387 -32.636,40.906 0,27.231 13.015,43.813 30.617,43.813 17.246,0 26.043,-15.742 26.043,-37.692 0,-4.75 -0.176,-7.48 -0.52,-9.668 h -38.555"
         style="fill:#787f84;fill-opacity:1;fill-rule:nonzero;stroke:none"
         id="path22" />
      <path
         d="m 743.398,358.609 c -7.097,-0.179 -19.793,-2.05 -19.793,-16.418 0,-9.3 4.911,-12.679 8.973,-12.679 4.563,0 8.789,3.047 10.313,9.468 0.339,1.192 0.507,2.731 0.507,4.219 z m 17.754,-22.5 c 0,-6.429 0.176,-13.371 1.016,-18.777 h -16.23 l -1.016,8.309 h -0.344 c -4.219,-6.289 -10.308,-9.661 -17.41,-9.661 -11.848,0 -20.801,9.821 -20.801,24.372 0,21.117 17.918,30.097 36.524,30.25 v 2.199 c 0,8.629 -3.379,14.551 -12.356,14.551 -5.906,0 -10.816,-1.704 -15.39,-4.582 l -3.368,12.359 c 4.051,2.543 12.676,5.922 22.657,5.922 21.296,0 26.718,-14.563 26.718,-32.121 v -32.821"
         style="fill:#787f84;fill-opacity:1;fill-rule:nonzero;stroke:none"
         id="path24" />
      <path
         d="m 784.219,376.52 c 0,9.308 -0.352,15.89 -0.684,23.191 h 15.723 l 0.84,-9.66 h 0.34 c 3.886,6.609 10.824,11 19.445,11 13.867,0 21.14,-10.653 21.14,-29.75 V 317.332 H 822.93 v 52.258 c 0,8.301 -1.692,16.238 -9.637,16.238 -4.398,0 -8.457,-3.379 -10.148,-10.137 -0.508,-1.711 -0.848,-4.39 -0.848,-7.453 v -50.906 h -18.078 v 59.188"
         style="fill:#787f84;fill-opacity:1;fill-rule:nonzero;stroke:none"
         id="path26" />
      <path
         d="m 914.16,376.699 c 1.36,-0.359 2.528,-0.359 4.395,-0.359 11.867,0 18.449,8.129 18.449,21.18 0,10.621 -4.399,19.609 -16.606,19.609 -2.515,0 -4.722,-0.328 -6.238,-0.848 z m -17.922,52.93 c 5.754,1.351 13.188,2.199 21.133,2.199 12.024,0 21.848,-2.199 28.598,-8.629 6.074,-5.75 9.129,-14.539 9.129,-24.347 0,-11.5 -3.203,-19.293 -8.465,-25.364 -6.77,-7.949 -17.754,-11.847 -27.403,-11.847 -1.859,0 -3.39,0 -5.07,0.179 v -44.488 h -17.922 v 112.297"
         style="fill:#787f84;fill-opacity:1;fill-rule:nonzero;stroke:none"
         id="path28" />
      <path
         d="m 1005.06,358.609 c -7.13,-0.179 -19.806,-2.05 -19.806,-16.418 0,-9.3 4.914,-12.679 8.965,-12.679 4.558,0 8.811,3.047 10.321,9.468 0.34,1.192 0.52,2.731 0.52,4.219 z m 17.74,-22.5 c 0,-6.429 0.16,-13.371 1.02,-18.777 h -16.23 l -1,8.309 h -0.35 c -4.22,-6.289 -10.322,-9.661 -17.431,-9.661 -11.844,0 -20.789,9.821 -20.789,24.372 0,21.117 17.937,30.097 36.52,30.25 v 2.199 c 0,8.629 -3.39,14.551 -12.352,14.551 -5.911,0 -10.801,-1.704 -15.372,-4.582 l -3.386,12.359 c 4.05,2.543 12.675,5.922 22.656,5.922 21.304,0 26.714,-14.563 26.714,-32.121 v -32.821"
         style="fill:#787f84;fill-opacity:1;fill-rule:nonzero;stroke:none"
         id="path30" />
      <path
         d="m 1045.87,376.52 c 0,7.609 -0.35,16.242 -0.69,23.191 h 15.74 l 1.01,-12.359 h 0.5 c 3.21,8.269 9.99,13.699 16.78,13.699 1.66,0 2.68,-0.16 3.86,-0.321 v -17.96 c -1.18,0.179 -2.35,0.179 -3.86,0.179 -6.3,0 -12.54,-5.238 -14.58,-14.187 -0.33,-1.883 -0.68,-4.742 -0.68,-7.793 v -43.637 h -18.08 v 59.188"
         style="fill:#787f84;fill-opacity:1;fill-rule:nonzero;stroke:none"
         id="path32" />
      <path
         d="m 1099.24,434.352 h 18.1 v -117.02 h -18.1 v 117.02"
         style="fill:#787f84;fill-opacity:1;fill-rule:nonzero;stroke:none"
         id="path34" />
      <path
         d="m 1140.84,317.332 v 82.379 h 18.11 v -82.379 z m 8.64,93.359 c -5.25,0 -9.48,4.231 -9.48,10.5 0,6.411 4.38,10.489 9.64,10.489 5.77,0 9.81,-4.078 9.81,-10.489 0,-6.269 -4.04,-10.5 -9.81,-10.5 h -0.16"
         style="fill:#787f84;fill-opacity:1;fill-rule:nonzero;stroke:none"
         id="path36" />
      <path
         d="m 1214.26,358.609 c -7.09,-0.179 -19.78,-2.05 -19.78,-16.418 0,-9.3 4.9,-12.679 8.96,-12.679 4.56,0 8.79,3.047 10.31,9.468 0.35,1.192 0.51,2.731 0.51,4.219 z m 17.77,-22.5 c 0,-6.429 0.18,-13.371 1.02,-18.777 h -16.26 l -1.02,8.309 h -0.32 c -4.24,-6.289 -10.31,-9.661 -17.41,-9.661 -11.85,0 -20.82,9.821 -20.82,24.372 0,21.117 17.93,30.097 36.53,30.25 v 2.199 c 0,8.629 -3.38,14.551 -12.33,14.551 -5.92,0 -10.83,-1.704 -15.4,-4.582 l -3.38,12.359 c 4.07,2.543 12.68,5.922 22.64,5.922 21.34,0 26.75,-14.563 26.75,-32.121 v -32.821"
         style="fill:#787f84;fill-opacity:1;fill-rule:nonzero;stroke:none"
         id="path38" />
      <path
         d="m 1255.04,376.52 c 0,9.308 -0.35,15.89 -0.66,23.191 h 15.71 l 0.84,-9.832 h 0.35 c 3.86,6.262 10.63,11.172 19.28,11.172 8.44,0 14.55,-4.063 17.57,-11.832 h 0.35 c 2.03,3.543 5.06,6.742 8.11,8.781 3.39,2.039 7.28,3.051 11.51,3.051 13.18,0 20.63,-10.16 20.63,-30.449 v -53.27 h -17.94 v 49.887 c 0,9.992 -1.34,18.781 -9.29,18.781 -4.73,0 -8.45,-3.551 -9.97,-9.66 -0.51,-1.66 -0.69,-4.031 -0.69,-6.578 v -52.43 h -17.91 v 52.777 c 0,7.25 -1.03,15.891 -9.13,15.891 -4.42,0 -8.66,-3.379 -10.15,-9.98 -0.35,-1.86 -0.7,-4.239 -0.7,-6.598 v -52.09 h -17.91 v 59.188"
         style="fill:#787f84;fill-opacity:1;fill-rule:nonzero;stroke:none"
         id="path40" />
      <path
         d="m 1408.66,366.559 c 0.18,13.171 -4.22,20.972 -10.64,20.972 -7.8,0 -11.33,-11.351 -11.66,-20.972 z m -22.3,-12.868 c 0.15,-18.429 8.61,-23.492 18.26,-23.492 6.06,0 11.15,1.34 14.71,2.852 l 2.69,-12.852 c -5.25,-2.359 -13.18,-3.867 -20.62,-3.867 -21.33,0 -32.66,15.387 -32.66,40.906 0,27.231 13.04,43.813 30.62,43.813 17.24,0 26.04,-15.742 26.04,-37.692 0,-4.75 -0.18,-7.48 -0.51,-9.668 h -38.53"
         style="fill:#787f84;fill-opacity:1;fill-rule:nonzero;stroke:none"
         id="path42" />
      <path
         d="m 1444.94,376.52 c 0,9.308 -0.35,15.89 -0.67,23.191 h 15.74 l 0.83,-9.66 h 0.35 c 3.87,6.609 10.8,11 19.44,11 13.86,0 21.13,-10.653 21.13,-29.75 v -53.969 h -18.09 v 52.258 c 0,8.301 -1.69,16.238 -9.64,16.238 -4.41,0 -8.44,-3.379 -10.15,-10.137 -0.49,-1.711 -0.83,-4.39 -0.83,-7.453 v -50.906 h -18.11 v 59.188"
         style="fill:#787f84;fill-opacity:1;fill-rule:nonzero;stroke:none"
         id="path44" />
      <path
         d="m 1545.9,420.172 v -20.461 h 15.89 v -13.039 h -15.89 v -42.781 c 0,-10.141 3.9,-12.672 8.47,-12.672 2.02,0 3.71,0.172 5.57,0.5 l 0.33,-14.039 c -2.69,-0.852 -6.75,-1.348 -11.82,-1.348 -5.74,0 -10.98,1.508 -14.55,5.059 -4.08,4.078 -6.1,10 -6.1,22.328 v 42.953 h -9.8 v 13.039 h 9.8 v 14.187 l 18.1,6.274"
         style="fill:#787f84;fill-opacity:1;fill-rule:nonzero;stroke:none"
         id="path46" />
      <path
         d="M 1561.73,505.602 V 883.855 H 994.766 V 505.602 h 566.964"
         style="fill:#254aa5;fill-opacity:1;fill-rule:nonzero;stroke:none"
         id="path48" />
      <path
         d="m 1277.96,842.75 5.4,-16.785 17.61,0.086 -14.31,-10.305 5.53,-16.746 -14.23,10.43 -14.18,-10.43 5.52,16.746 -14.32,10.305 17.6,-0.086 5.38,16.785"
         style="fill:#fff200;fill-opacity:1;fill-rule:nonzero;stroke:none"
         id="path50" />
      <path
         d="m 1277.96,590.418 5.4,-16.73 17.61,0.078 -14.31,-10.332 5.53,-16.746 -14.23,10.41 -14.18,-10.41 5.52,16.746 -14.32,10.332 17.6,-0.078 5.38,16.73"
         style="fill:#fff200;fill-opacity:1;fill-rule:nonzero;stroke:none"
         id="path52" />
      <path
         d="m 1215.21,825.965 5.38,-16.77 17.6,0.047 -14.25,-10.262 5.5,-16.726 -14.23,10.406 -14.18,-10.406 5.49,16.726 -14.24,10.262 17.59,-0.047 5.34,16.77"
         style="fill:#fff200;fill-opacity:1;fill-rule:nonzero;stroke:none"
         id="path54" />
      <path
         d="m 1169.03,779.645 5.36,-16.766 17.62,0.113 -14.31,-10.32 5.49,-16.719 -14.16,10.418 -14.2,-10.418 5.52,16.719 -14.35,10.32 17.66,-0.113 5.37,16.766"
         style="fill:#fff200;fill-opacity:1;fill-rule:nonzero;stroke:none"
         id="path56" />
      <path
         d="m 1151.99,716.703 5.33,-16.726 17.65,0.089 -14.3,-10.332 5.45,-16.703 -14.13,10.422 -14.21,-10.422 5.54,16.703 -14.34,10.332 17.62,-0.089 5.39,16.726"
         style="fill:#fff200;fill-opacity:1;fill-rule:nonzero;stroke:none"
         id="path58" />
      <path
         d="m 1168.83,653.805 5.4,-16.836 17.56,0.136 -14.28,-10.312 5.55,-16.727 -14.23,10.465 -14.2,-10.465 5.54,16.727 -14.33,10.281 17.61,-0.105 5.38,16.836"
         style="fill:#fff200;fill-opacity:1;fill-rule:nonzero;stroke:none"
         id="path60" />
      <path
         d="m 1215.21,607.508 5.38,-16.77 17.6,0.078 -14.25,-10.285 5.5,-16.734 -14.23,10.398 -14.18,-10.398 5.49,16.734 -14.24,10.285 17.59,-0.078 5.34,16.77"
         style="fill:#fff200;fill-opacity:1;fill-rule:nonzero;stroke:none"
         id="path62" />
      <path
         d="m 1340.8,825.965 -5.37,-16.77 -17.65,0.047 14.32,-10.262 -5.52,-16.726 14.22,10.406 14.18,-10.406 -5.49,16.726 14.27,10.262 -17.55,-0.047 -5.41,16.77"
         style="fill:#fff200;fill-opacity:1;fill-rule:nonzero;stroke:none"
         id="path64" />
      <path
         d="m 1387.01,779.645 -5.38,-16.766 -17.64,0.113 14.31,-10.32 -5.53,-16.719 14.24,10.418 14.22,-10.418 -5.54,16.719 14.27,10.32 -17.6,-0.113 -5.35,16.766"
         style="fill:#fff200;fill-opacity:1;fill-rule:nonzero;stroke:none"
         id="path66" />
      <path
         d="m 1404.05,716.703 -5.38,-16.726 -17.64,0.089 14.31,-10.332 -5.52,-16.703 14.23,10.422 14.2,-10.422 -5.5,16.703 14.25,10.332 -17.6,-0.089 -5.35,16.726"
         style="fill:#fff200;fill-opacity:1;fill-rule:nonzero;stroke:none"
         id="path68" />
      <path
         d="m 1387.12,653.805 -5.3,-16.836 -17.64,0.136 14.33,-10.312 -5.55,-16.727 14.16,10.465 14.28,-10.465 -5.52,16.727 14.3,10.281 -17.63,-0.105 -5.43,16.836"
         style="fill:#fff200;fill-opacity:1;fill-rule:nonzero;stroke:none"
         id="path70" />
      <path
         d="m 1340.8,607.508 -5.37,-16.77 -17.65,0.078 14.32,-10.285 -5.52,-16.734 14.22,10.398 14.18,-10.398 -5.49,16.734 14.27,10.285 -17.55,-0.078 -5.41,16.77"
         style="fill:#fff200;fill-opacity:1;fill-rule:nonzero;stroke:none"
         id="path72" />
      <path
         d="m 1085.04,959.238 v 31.278 c -11.39,9.744 -56.86,29.254 -84.57,35.384 v -22.02 c 31.7,-7.786 71.19,-30.704 84.57,-44.642"
         style="fill:#787f84;fill-opacity:1;fill-rule:nonzero;stroke:none"
         id="path74" />
      <path
         d="m 1108.09,912.566 h 26.93 c 0.82,39.461 -31.21,63.891 -35.8,67.43 v -37.601 c 10.29,-16.672 8.87,-29.829 8.87,-29.829"
         style="fill:#787f84;fill-opacity:1;fill-rule:nonzero;stroke:none"
         id="path76" />
      <path
         d="m 1175.12,991.992 v -33.945 c 13.53,-14.168 21.66,-25.262 28.1,-45.645 h 28.52 c -7.62,31.164 -25.74,56.633 -56.62,79.59"
         style="fill:#787f84;fill-opacity:1;fill-rule:nonzero;stroke:none"
         id="path78" />
      <path
         d="m 1157.75,973.379 v 30.581 c -26.17,16.93 -77.89,40.11 -129.57,50.9 v -21.94 c 49.65,-12.03 102.43,-37.764 129.57,-59.541"
         style="fill:#787f84;fill-opacity:1;fill-rule:nonzero;stroke:none"
         id="path80" />
      <path
         d="m 1231.05,991.945 v 30.265 c -31.38,19.79 -96.01,47.46 -172.3,63.56 v -21.89 c 73.24,-17.7 128.83,-42.94 172.3,-71.935"
         style="fill:#787f84;fill-opacity:1;fill-rule:nonzero;stroke:none"
         id="path82" />
      <path
         d="m 1251.35,1009.33 c -0.04,0.02 -0.08,-32.541 -0.08,-32.541 20.04,-15.898 39.39,-36.832 52.3,-64.387 h 30.28 c -10.35,34.289 -49.1,75.852 -82.5,96.928"
         style="fill:#787f84;fill-opacity:1;fill-rule:nonzero;stroke:none"
         id="path84" />
      <path
         d="m 1312.83,1010.78 v 30.27 c -60.04,35.52 -150.04,66.74 -221.5,79.33 v -21.83 c 80.72,-16.19 176.87,-56.08 221.5,-87.77"
         style="fill:#787f84;fill-opacity:1;fill-rule:nonzero;stroke:none"
         id="path86" />
      <path
         d="m 1409.92,912.402 h 31.72 c -22.81,54.606 -79.92,98.378 -106.6,115.038 v -32.116 c 40.39,-29.933 55.33,-51.328 74.88,-82.922"
         style="fill:#787f84;fill-opacity:1;fill-rule:nonzero;stroke:none"
         id="path88" />
      <path
         d="m 1393.3,1029.9 v 31.36 c -48.63,29.76 -147.03,74.3 -266.84,97.38 v -22.78 c 91.16,-18.94 207.39,-64.17 266.84,-105.96"
         style="fill:#787f84;fill-opacity:1;fill-rule:nonzero;stroke:none"
         id="path90" />
      <path
         d="m 1512.83,912.402 h 34.69 c -38.46,65.438 -82.46,102.848 -130,133.778 v -32.86 c 35.23,-24.746 73.01,-61.64 95.31,-100.918"
         style="fill:#787f84;fill-opacity:1;fill-rule:nonzero;stroke:none"
         id="path92" />
      <path
         d="m 977.754,1010.02 v 20.68 c -31.211,5.87 -86.055,9.61 -110.156,6.47 v -16.2 c 36.191,1.88 89.492,-4.84 110.156,-10.95"
         style="fill:#787f84;fill-opacity:1;fill-rule:nonzero;stroke:none"
         id="path94" />
      <path
         d="m 843.324,1019.49 v 15.47 c -57.902,-6.05 -97.625,-25.95 -120.605,-42.925 v -13.308 c 32.808,26.483 78.261,37.443 120.605,40.763"
         style="fill:#787f84;fill-opacity:1;fill-rule:nonzero;stroke:none"
         id="path96" />
      <path
         d="m 709.336,964.844 0.004,15.058 c -53.27,-59.847 13.379,-109.691 20.469,-114.656 v 20.465 c -37.254,28.156 -32.879,62.48 -20.473,79.133"
         style="fill:#787f84;fill-opacity:1;fill-rule:nonzero;stroke:none"
         id="path98" />
      <path
         d="m 749.977,873.027 v -21.941 c 36.171,-20.023 72.578,-32.68 124.359,-41.957 l -0.371,29.746 c -35.192,2.133 -83.559,12.168 -123.988,34.152"
         style="fill:#787f84;fill-opacity:1;fill-rule:nonzero;stroke:none"
         id="path100" />
      <path
         d="m 891.621,837.938 -0.156,-30.942 c 30.293,-2.516 58.867,-3.277 74.473,-3.258 v 34.805 c -22.989,-1.543 -65.606,-1.84 -74.317,-0.605"
         style="fill:#787f84;fill-opacity:1;fill-rule:nonzero;stroke:none"
         id="path102" />
      <path
         d="m 1005.47,1038.25 v 21.1 c -37.267,7.55 -109.552,13.18 -152.365,9.18 v -16.41 c 56.504,2.09 112.403,-5.14 152.365,-13.87"
         style="fill:#787f84;fill-opacity:1;fill-rule:nonzero;stroke:none"
         id="path104" />
      <path
         d="m 854.805,749.48 v 33.125 c -55.453,4.903 -140.7,24.258 -193.637,63.118 V 823.641 C 719.219,779.852 811.035,755.57 854.805,749.48"
         style="fill:#787f84;fill-opacity:1;fill-rule:nonzero;stroke:none"
         id="path106" />
      <path
         d="m 641.07,840.223 v 21.867 c -46.972,44.668 -37.804,90.109 -7.472,119.387 v 13.679 C 575.297,942.215 596.656,878.141 641.07,840.223"
         style="fill:#787f84;fill-opacity:1;fill-rule:nonzero;stroke:none"
         id="path108" />
      <path
         d="m 874.277,780.824 v -34.293 c 33.75,-4.75 63.008,-6.269 91.661,-6.269 v 37.851 c -30.879,-0.175 -77.95,1.422 -91.661,2.711"
         style="fill:#787f84;fill-opacity:1;fill-rule:nonzero;stroke:none"
         id="path110" />
      <path
         d="m 649.313,1008.05 v -12.894 c 50.523,37.594 126.277,52.744 179.531,55.624 v 15.76 c -65.949,-4.31 -141.703,-29.59 -179.531,-58.49"
         style="fill:#787f84;fill-opacity:1;fill-rule:nonzero;stroke:none"
         id="path112" />
      <path
         d="M 567.113,820.16 V 796.449 C 639.586,731.102 758.816,695.516 830.844,683.094 v 36.933 c -66.367,7.442 -186.293,33.164 -263.731,100.133"
         style="fill:#787f84;fill-opacity:1;fill-rule:nonzero;stroke:none"
         id="path114" />
      <path
         d="m 1036.04,1069.31 v 20.82 c -46.821,8.52 -127.759,17.82 -203.544,10.89 v -16.5 c 63.695,4.44 153.598,-3.84 203.544,-15.21"
         style="fill:#787f84;fill-opacity:1;fill-rule:nonzero;stroke:none"
         id="path116" />
      <path
         d="m 852.168,717.621 v -38.219 c 32.129,-6.425 84.98,-9.414 113.77,-10.468 v 42.597 c -17.168,-0.605 -92.344,3.707 -113.77,6.09"
         style="fill:#787f84;fill-opacity:1;fill-rule:nonzero;stroke:none"
         id="path118" />
      <path
         d="m 808.18,1082.99 v 16.03 c -56.34,-4.85 -157.075,-24.92 -223.907,-70.15 v -12.98 c 65.04,44.29 165.704,63.95 223.907,67.1"
         style="fill:#787f84;fill-opacity:1;fill-rule:nonzero;stroke:none"
         id="path120" />
      <path
         d="m 565.934,1002.69 v 13.2 C 535.359,992.832 460.391,915.09 547.172,816.688 v 23.871 c -19.285,21.562 -65.848,91.406 18.762,162.131"
         style="fill:#787f84;fill-opacity:1;fill-rule:nonzero;stroke:none"
         id="path122" />
      <path
         d="m 1068.61,1103.45 v 21.37 c -56.73,11.13 -167.243,20.76 -254.133,12.23 v -16.51 c 76.812,5.94 186.093,-2.72 254.133,-17.09"
         style="fill:#787f84;fill-opacity:1;fill-rule:nonzero;stroke:none"
         id="path124" />
      <path
         d="m 828.531,652.156 v -40.429 c 42.778,-8.321 96.059,-13.481 137.407,-14.883 v 45.879 c -49.473,0.84 -92.129,3.183 -137.407,9.433"
         style="fill:#787f84;fill-opacity:1;fill-rule:nonzero;stroke:none"
         id="path126" />
      <path
         d="m 805.172,615.555 v 39.121 C 686.246,671.488 555.199,714.813 474,794.422 v -25.234 c 96.199,-95.825 255.785,-140 331.172,-153.633"
         style="fill:#787f84;fill-opacity:1;fill-rule:nonzero;stroke:none"
         id="path128" />
      <path
         d="m 518.57,1051.77 v -12.73 c 79.504,50.61 188.426,72.36 271.629,79.74 v 16.1 c -79.988,-6.94 -197.136,-34.18 -271.629,-83.11"
         style="fill:#787f84;fill-opacity:1;fill-rule:nonzero;stroke:none"
         id="path130" />
      <path
         d="m 453.93,793.641 v 25.996 c -31.125,42.445 -61.668,126.16 45.898,206.323 v 13.08 C 379.02,952.668 409.133,846.941 453.93,793.641"
         style="fill:#787f84;fill-opacity:1;fill-rule:nonzero;stroke:none"
         id="path132" />
      <path
         d="M 370.512,777.313 V 749.129 C 461.773,630.746 650.211,561.063 767.379,536.371 v 43.227 C 644.273,600.438 457.23,660.746 370.512,777.313"
         style="fill:#787f84;fill-opacity:1;fill-rule:nonzero;stroke:none"
         id="path134" />
      <path
         d="m 1103.5,1140.75 v 22.19 c -56.1,11.72 -192.465,26.84 -312.539,14.34 v -17.05 c 100.406,8.83 227.129,-1.95 312.539,-19.48"
         style="fill:#787f84;fill-opacity:1;fill-rule:nonzero;stroke:none"
         id="path136" />
      <path
         d="m 766.703,1158.16 v 16.66 C 662.5,1164.19 533.125,1128.15 457.523,1078.75 v -13.21 c 94.977,58.24 221.024,84.28 309.18,92.62"
         style="fill:#787f84;fill-opacity:1;fill-rule:nonzero;stroke:none"
         id="path138" />
      <path
         d="m 792.828,575.477 v -44.321 c 26.758,-6.812 128.324,-21.343 173.11,-21.695 v 50.801 c -68.36,2.168 -138.168,9.59 -173.11,15.215"
         style="fill:#787f84;fill-opacity:1;fill-rule:nonzero;stroke:none"
         id="path140" />
      <path
         d="m 437.152,1052.12 v 13.42 C 406.57,1045.82 261.762,937.098 350.719,780.199 v 31.645 c -55.641,115.656 29.168,199.586 86.433,240.276"
         style="fill:#787f84;fill-opacity:1;fill-rule:nonzero;stroke:none"
         id="path142" />
    </g>
  </g>
</svg>
