<svg width="1086" height="423" viewBox="0 0 1086 423" fill="none" xmlns="http://www.w3.org/2000/svg">
<path d="M33.1231 172.5H218.123V204.5H33.1231V172.5ZM37.1231 353H0.123051V2.99998H240.123V35H37.1231V353ZM283.928 353L443.928 2.99998H480.428L640.428 353H601.428L454.428 24.5H469.428L322.428 353H283.928ZM346.928 259.5L357.928 229.5H561.428L572.428 259.5H346.928ZM886.443 356C860.11 356 835.61 351.667 812.943 343C790.61 334 771.11 321.5 754.443 305.5C738.11 289.167 725.277 270.333 715.943 249C706.943 227.333 702.443 203.667 702.443 178C702.443 152.333 706.943 128.833 715.943 107.5C725.277 85.8333 738.11 67 754.443 51C771.11 34.6666 790.61 22.1666 812.943 13.5C835.277 4.49999 859.777 -1.50204e-05 886.443 -1.50204e-05C912.777 -1.50204e-05 937.11 4.49999 959.443 13.5C981.777 22.1666 1001.11 34.5 1017.44 50.5C1034.11 66.5 1046.94 85.3333 1055.94 107C1065.28 128.667 1069.94 152.333 1069.94 178C1069.94 203.667 1065.28 227.333 1055.94 249C1046.94 270.667 1034.11 289.5 1017.44 305.5C1001.11 321.5 981.777 334 959.443 343C937.11 351.667 912.777 356 886.443 356ZM1000.94 422.5C990.277 422.5 979.943 421.167 969.943 418.5C959.943 415.833 949.777 411.5 939.443 405.5C929.443 399.833 919.11 392.333 908.443 383C897.777 373.667 886.11 362.333 873.443 349L913.943 339C924.277 351.333 934.277 361.5 943.943 369.5C953.943 377.5 963.61 383.333 972.943 387C982.61 391 992.11 393 1001.44 393C1027.44 393 1049.61 382.333 1067.94 361L1085.94 382.5C1063.94 409.167 1035.61 422.5 1000.94 422.5ZM886.443 323C907.443 323 926.777 319.5 944.443 312.5C962.443 305.167 977.943 294.833 990.943 281.5C1004.28 268.167 1014.61 252.833 1021.94 235.5C1029.28 217.833 1032.94 198.667 1032.94 178C1032.94 157 1029.28 137.833 1021.94 120.5C1014.61 102.833 1004.28 87.5 990.943 74.5C977.943 61.1667 962.443 51 944.443 44C926.777 36.6666 907.443 33 886.443 33C865.443 33 845.943 36.6666 827.943 44C809.943 51 794.277 61.1667 780.943 74.5C767.943 87.5 757.61 102.833 749.943 120.5C742.61 137.833 738.943 157 738.943 178C738.943 198.667 742.61 217.833 749.943 235.5C757.61 252.833 767.943 268.167 780.943 281.5C794.277 294.833 809.943 305.167 827.943 312.5C845.943 319.5 865.443 323 886.443 323Z" fill="black" fill-opacity="0.01"/>
</svg>
