<svg width="1195" height="265" viewBox="0 0 1195 265" fill="none" xmlns="http://www.w3.org/2000/svg">
<path d="M192.158 0.499982H219.533V263H192.158V0.499982ZM27.9077 263H0.157718V0.499982H27.9077V263ZM194.783 141.875H24.9077V117.5H194.783V141.875ZM409.836 264.875C390.836 264.875 373.711 260.625 358.461 252.125C343.461 243.375 331.586 231.5 322.836 216.5C314.086 201.25 309.711 183.875 309.711 164.375C309.711 144.625 314.086 127.25 322.836 112.25C331.586 97.25 343.461 85.5 358.461 77C373.461 68.5 390.586 64.25 409.836 64.25C429.336 64.25 446.586 68.5 461.586 77C476.836 85.5 488.711 97.25 497.211 112.25C505.961 127.25 510.336 144.625 510.336 164.375C510.336 183.875 505.961 201.25 497.211 216.5C488.711 231.5 476.836 243.375 461.586 252.125C446.336 260.625 429.086 264.875 409.836 264.875ZM409.836 241.25C424.086 241.25 436.711 238.125 447.711 231.875C458.711 225.375 467.336 216.375 473.586 204.875C480.086 193.125 483.336 179.625 483.336 164.375C483.336 148.875 480.086 135.375 473.586 123.875C467.336 112.375 458.711 103.5 447.711 97.25C436.711 90.75 424.211 87.5 410.211 87.5C396.211 87.5 383.711 90.75 372.711 97.25C361.711 103.5 352.961 112.375 346.461 123.875C339.961 135.375 336.711 148.875 336.711 164.375C336.711 179.625 339.961 193.125 346.461 204.875C352.961 216.375 361.711 225.375 372.711 231.875C383.711 238.125 396.086 241.25 409.836 241.25ZM840.694 64.25C856.694 64.25 870.569 67.375 882.319 73.625C894.319 79.625 903.569 88.875 910.069 101.375C916.819 113.875 920.194 129.625 920.194 148.625V263H893.569V151.25C893.569 130.5 888.569 114.875 878.569 104.375C868.819 93.625 854.944 88.25 836.944 88.25C823.444 88.25 811.694 91.125 801.694 96.875C791.944 102.375 784.319 110.5 778.819 121.25C773.569 131.75 770.944 144.5 770.944 159.5V263H744.319V151.25C744.319 130.5 739.319 114.875 729.319 104.375C719.319 93.625 705.319 88.25 687.319 88.25C674.069 88.25 662.444 91.125 652.444 96.875C642.444 102.375 634.694 110.5 629.194 121.25C623.944 131.75 621.319 144.5 621.319 159.5V263H594.694V66.125H620.194V119.375L616.069 110C622.069 95.75 631.694 84.625 644.944 76.625C658.444 68.375 674.319 64.25 692.569 64.25C711.819 64.25 728.194 69.125 741.694 78.875C755.194 88.375 763.944 102.75 767.944 122L757.444 117.875C763.194 101.875 773.319 89 787.819 79.25C802.569 69.25 820.194 64.25 840.694 64.25ZM1106.02 264.875C1085.52 264.875 1067.52 260.625 1052.02 252.125C1036.52 243.375 1024.4 231.5 1015.65 216.5C1006.9 201.25 1002.52 183.875 1002.52 164.375C1002.52 144.875 1006.65 127.625 1014.9 112.625C1023.4 97.625 1034.9 85.875 1049.4 77.375C1064.15 68.625 1080.65 64.25 1098.9 64.25C1117.4 64.25 1133.77 68.5 1148.02 77C1162.52 85.25 1173.9 97 1182.15 112.25C1190.4 127.25 1194.52 144.625 1194.52 164.375C1194.52 165.625 1194.4 167 1194.15 168.5C1194.15 169.75 1194.15 171.125 1194.15 172.625H1022.77V152.75H1179.9L1169.4 160.625C1169.4 146.375 1166.27 133.75 1160.02 122.75C1154.02 111.5 1145.77 102.75 1135.27 96.5C1124.77 90.25 1112.65 87.125 1098.9 87.125C1085.4 87.125 1073.27 90.25 1062.52 96.5C1051.77 102.75 1043.4 111.5 1037.4 122.75C1031.4 134 1028.4 146.875 1028.4 161.375V165.5C1028.4 180.5 1031.65 193.75 1038.15 205.25C1044.9 216.5 1054.15 225.375 1065.9 231.875C1077.9 238.125 1091.52 241.25 1106.77 241.25C1118.77 241.25 1129.9 239.125 1140.15 234.875C1150.65 230.625 1159.65 224.125 1167.15 215.375L1182.15 232.625C1173.4 243.125 1162.4 251.125 1149.15 256.625C1136.15 262.125 1121.77 264.875 1106.02 264.875Z" fill="black" fill-opacity="0.01"/>
</svg>
