<svg width="977" height="832" viewBox="0 0 977 832" fill="none" xmlns="http://www.w3.org/2000/svg">
<path d="M666.821 1051.43L607.027 1145.34L18.2532 770.442L70.5735 688.273L574.157 547.861C636.103 530.576 685.878 514.223 723.481 498.804C761.758 483.236 791.891 466.822 813.878 449.564C836.54 432.156 855.345 411.714 870.294 388.237C889.176 358.582 900.045 327.876 902.9 296.12C906.428 264.214 901.044 233.579 886.746 204.215C872.448 174.85 848.619 149.547 815.257 128.304C775.305 102.865 736.96 89.448 700.223 88.0525C664.159 86.5073 630.752 95.3364 600.001 114.54C569.25 133.743 542.466 161.261 519.65 197.094L405.355 124.318C437.612 73.6574 478.237 34.4026 527.228 6.55336C576.22 -21.2959 630.412 -33.6771 689.806 -30.5902C749.463 -27.9153 811.211 -6.25291 875.051 34.3969C931.89 70.5884 974.066 111.626 1001.58 157.509C1029.35 202.98 1042.41 250.656 1040.75 300.539C1039.76 350.271 1023.93 399.232 993.243 447.421C976.459 473.781 954.881 497.668 928.511 519.082C902.815 540.347 873.618 559.382 840.92 576.188C808.634 593.256 773.933 608.208 736.818 621.043C700.114 634.141 662.23 645.908 623.168 656.346L215.82 764.26L666.821 1051.43Z" fill="black" fill-opacity="0.01"/>
</svg>
