<svg width="984" height="832" viewBox="0 0 984 832" fill="none" xmlns="http://www.w3.org/2000/svg">
<path d="M513.627 370.276L595.178 422.203C635.13 447.642 672.276 462.032 706.616 465.374C741.63 468.567 772.865 462.696 800.319 447.761C828.448 432.676 851.822 410.512 870.442 381.269C892.472 346.672 905.195 313.963 908.611 283.143C912.027 252.323 906.006 223.598 890.546 196.967C875.087 170.337 849.646 145.744 814.225 123.19C782.099 102.734 749.615 91.0224 716.773 88.055C684.604 84.9381 654.175 90.4537 625.485 104.602C597.207 119.012 573.102 141.869 553.17 173.171L438.875 100.395C467.986 54.6768 506.006 20.4208 552.937 -2.37331C599.867 -25.1674 651.213 -34.4411 706.974 -30.1943C763.147 -25.6853 818.829 -5.85952 874.02 29.2829C928.387 63.9008 969.796 103.871 998.245 149.192C1026.96 194.102 1040.58 242.715 1039.1 295.031C1037.89 346.936 1019.45 400.896 983.782 456.91C969.358 479.563 948.53 500.455 921.299 519.584C894.742 538.564 863.262 552.093 826.859 560.173C790.868 568.514 750.778 568.747 706.59 560.87C662.664 552.582 616.195 532.834 567.182 501.625L469.568 439.471L513.627 370.276ZM453.832 464.183L497.498 395.606L595.112 457.761C652.363 494.215 695.401 531.17 724.227 568.627C753.053 606.084 770.963 642.958 777.956 679.249C785.361 715.801 784.734 750.423 776.074 783.114C768.089 815.656 755.573 845.312 738.526 872.084C711.776 914.095 680.834 946.78 645.7 970.139C610.978 993.761 573.431 1008.64 533.058 1014.77C493.098 1021.16 452.148 1019.11 410.207 1008.61C368.267 998.114 326.909 979.884 286.133 953.921C247.005 929.006 213.683 899.974 186.166 866.824C159.062 833.936 139.017 798.597 126.032 760.807C113.31 722.605 109.369 683.338 114.211 643.006C119.315 602.263 134.587 561.915 160.026 521.963L274.321 594.74C254.389 626.042 243.745 657.759 242.388 689.89C241.443 722.284 249.543 753.2 266.687 782.64C284.505 811.931 310.918 837.722 345.928 860.013C380.937 882.305 414.806 895.478 447.536 899.531C480.94 903.435 512.306 897.358 541.633 881.3C571.372 865.504 598.174 838.866 622.04 801.386C645.905 763.905 657.618 728.238 657.177 694.383C656.999 660.117 646.166 628.039 624.678 598.148C603.864 568.108 574.099 540.762 535.383 516.11L453.832 464.183Z" fill="black" fill-opacity="0.01"/>
</svg>
